<svg xmlns="http://www.w3.org/2000/svg" height="24" width="24" version="1.1" xmlns:xlink="http://www.w3.org/1999/xlink" viewBox="0 0 6.3499998 6.35">
 <defs>
  <radialGradient id="b" gradientUnits="userSpaceOnUse" cy="89.479" cx="117.87" gradientTransform="matrix(.044337 0 0 .090268 -2.0683 285.55)" r="16.435">
   <stop stop-color="#869da6" offset="0"/>
   <stop stop-color="#798d9b" offset="1"/>
  </radialGradient>
  <radialGradient id="a" gradientUnits="userSpaceOnUse" cy="139.17" cx="118.26" gradientTransform="matrix(.044337 0 0 .042547 -2.0683 289.15)" r="35.004">
   <stop stop-color="#81d6c1" offset="0"/>
   <stop stop-color="#58c9ad" offset="1"/>
  </radialGradient>
 </defs>
 <g transform="translate(0,-290.65)">
  <path d="m3.1744 290.65a0.72869 0.75298 0 0 0 -0.72867 0.75297 0.72869 0.75298 0 0 0 0.0007759 0.0244c-0.0001773 0.003-0.0007759 0.005-0.0007759 0.008v2.0844c0 0.0538 0.043327 0.0971 0.097154 0.0971h1.2631c0.053826 0 0.097153-0.0433 0.097153-0.0971v-2.0844c0-0.004-0.0006783-0.007-0.00106-0.0107a0.72869 0.75298 0 0 0 0.00106 -0.0219 0.72869 0.75298 0 0 0 -0.72872 -0.75297z" fill="url(#b)"/>
  <path d="m2.0153 293.58c-0.21663 0-0.39237 0.1756-0.39228 0.39223 0.0000488 0.24717 0.37706 2.5688 0.37706 2.5688l0.0013-0.00018h2.3472l0.0013 0.00018s0.37701-2.3216 0.37706-2.5688c0.0000887-0.21663-0.17564-0.39223-0.39228-0.39223h-1.1597z" fill="url(#a)"/>
  <path d="m2.0014 296.54c0.067913 0.21483 0.26748 0.41849 0.42308 0.45903 0.24519-0.0205 0.49853-0.0317 0.7513-0.0329 0.25277 0.001 0.5061 0.0124 0.7513 0.0329 0.1556-0.0405 0.35516-0.2442 0.42308-0.45903" fill-rule="evenodd" fill="#ececec"/>
  <path d="m4.0173 293.92-0.55314 0.38473-0.58777 0.40883 0.49471-0.43869c-0.1334-0.0333-0.27309-0.0322-0.40594 0.003-0.4325 0.11588-0.68916 0.56044-0.57327 0.99293 0.033521 0.12485 0.096416 0.23986 0.18343 0.33545l0.3827-0.48683-0.42034 0.11263zm-0.24262 0.59601-0.38267 0.48709-0.0000417 0.00004 0.42034-0.11263-1.4797 1.3121-0.0000189 0.00002 0.0000029 0.00001 0.55321-0.38478 0.58777-0.40883-0.49471 0.43869c0.1334 0.0333 0.27309 0.0322 0.40594-0.003 0.4325-0.11588 0.68916-0.56044 0.57327-0.99293-0.03352-0.12484-0.096415-0.23986-0.18343-0.33545z" fill="#fff"/>
 </g>
</svg>
